<?xml version="1.0" encoding="utf-8"?>
<!-- Generator: Adobe Illustrator 16.0.0, SVG Export Plug-In . SVG Version: 6.00 Build 0)  -->
<!DOCTYPE svg PUBLIC "-//W3C//DTD SVG 1.1//EN" "http://www.w3.org/Graphics/SVG/1.1/DTD/svg11.dtd">
<svg version="1.1" id="Шар_1" xmlns="http://www.w3.org/2000/svg" xmlns:xlink="http://www.w3.org/1999/xlink" x="0px" y="0px"
	 width="249.535px" height="39.45px" viewBox="0.216 0 249.535 39.45" enable-background="new 0.216 0 249.535 39.45"
	 xml:space="preserve">
<g>
	<g>
		<g>
			<path fill="#36A7DF" d="M27.57,23.388c0,2.238-1.817,4.056-4.057,4.056c-2.238,0.004-4.055-1.813-4.055-4.053
				c0-2.242,1.816-4.058,4.056-4.058C25.753,19.333,27.57,21.149,27.57,23.388z"/>
			<path fill="#36A7DF" d="M39.244,23.391c0,2.239-1.815,4.057-4.058,4.057c-2.239-0.004-4.056-1.821-4.056-4.06
				c0-2.239,1.817-4.055,4.056-4.055C37.427,19.333,39.244,21.149,39.244,23.391z"/>
			<path fill="#36A7DF" d="M27.57,35.063c0,2.239-1.817,4.057-4.056,4.057c-2.24,0-4.056-1.817-4.056-4.057
				c0-2.242,1.815-4.059,4.056-4.059C25.753,31.007,27.57,32.824,27.57,35.063z"/>
			<circle fill="#36A7DF" cx="35.186" cy="35.063" r="4.056"/>
		</g>
		<path fill="#FFDD00" d="M39.244,8.224V0.093c-21.555,0-39.028,17.472-39.028,39.027h8.131C8.347,22.083,22.207,8.224,39.244,8.224
			z"/>
	</g>
	<g>
		<path fill="#575756" d="M60.861,1.214v15.183h7.703V1.214h7.365v37.895h-7.365V23.255h-7.703v15.854h-7.365V1.214H60.861z"/>
		<path fill="#575756" d="M87.621,27.978c0.112,4.274,2.587,5.846,5.847,5.846c2.081,0,3.937-0.447,5.229-0.895l1.014,5.285
			c-1.912,0.729-4.78,1.235-7.591,1.235c-7.478,0-11.583-4.949-11.583-13.552c0-9.222,4.78-14.731,11.021-14.731
			c5.904,0,9.334,4.668,9.334,12.987c0,1.973-0.058,3.036-0.225,3.824H87.621z M94.2,22.806c0-3.543-0.898-6.297-3.093-6.297
			c-2.417,0-3.374,3.541-3.431,6.297H94.2z"/>
		<path fill="#575756" d="M105.048,0.204h7.363v38.905h-7.363V0.204z"/>
		<path fill="#575756" d="M123.823,27.978c0.113,4.274,2.585,5.846,5.847,5.846c2.08,0,3.938-0.447,5.231-0.895l1.011,5.285
			c-1.912,0.729-4.779,1.235-7.592,1.235c-7.478,0-11.582-4.949-11.582-13.552c0-9.222,4.779-14.731,11.019-14.731
			c5.906,0,9.335,4.668,9.335,12.987c0,1.973-0.056,3.036-0.226,3.824H123.823z M130.402,22.806c0-3.543-0.9-6.297-3.093-6.297
			c-2.418,0-3.374,3.541-3.431,6.297H130.402z"/>
		<path fill="#575756" d="M141.249,19.881c0-3.036-0.166-5.677-0.225-8.265h6.353l0.341,3.149h0.109
			c1.461-2.193,3.824-3.6,6.693-3.6c5.227,0,7.309,4.162,7.309,10.29v17.652h-7.367V21.908c0-2.362-0.563-4.557-2.699-4.557
			c-1.236,0-2.248,0.844-2.754,2.474c-0.225,0.562-0.395,1.464-0.395,2.532v16.752h-7.365V19.881z"/>
		<path fill="#575756" d="M179.31,39.109l-0.393-2.696h-0.114c-1.518,2.138-3.655,3.15-6.073,3.15c-4.158,0-7.251-3.486-7.251-8.377
			c0-7.197,6.354-10.18,12.594-10.234v-0.62c0-2.137-1.293-3.709-3.88-3.709c-2.191,0-3.991,0.562-5.621,1.572l-1.35-4.946
			c1.518-0.901,4.723-2.082,8.549-2.082c8.374,0,9.724,5.85,9.724,11.414v10.233c0,2.192,0.113,4.443,0.449,6.295H179.31z
			 M178.297,25.733c-2.473,0.053-5.848,0.84-5.848,4.665c0,2.753,1.52,3.767,2.645,3.767c1.179,0,2.528-0.733,3.035-2.363
			c0.113-0.391,0.168-0.845,0.168-1.293V25.733z"/>
		<path fill="#575756" d="M198.816,4.195v7.422h5.396v5.229h-5.396v12.539c0,3.204,1.35,3.992,2.813,3.992
			c0.73,0,1.293-0.054,1.91-0.168l0.059,5.735c-1.014,0.28-2.531,0.506-4.499,0.506c-2.136,0-3.991-0.506-5.287-1.744
			c-1.517-1.461-2.36-3.541-2.36-7.87v-12.99h-3.262v-5.229h3.262V5.938L198.816,4.195z"/>
		<path fill="#575756" d="M213.433,27.978c0.112,4.274,2.586,5.846,5.848,5.846c2.08,0,3.936-0.447,5.227-0.895l1.016,5.285
			c-1.914,0.729-4.781,1.235-7.592,1.235c-7.478,0-11.583-4.949-11.583-13.552c0-9.222,4.778-14.731,11.022-14.731
			c5.9,0,9.331,4.668,9.331,12.987c0,1.973-0.056,3.036-0.224,3.824H213.433z M220.011,22.806c0-3.543-0.898-6.297-3.095-6.297
			c-2.417,0-3.371,3.541-3.428,6.297H220.011z"/>
		<path fill="#575756" d="M236.144,11.617l1.686,4.893c0.563,1.632,1.014,3.262,1.35,4.61h0.112c0.395-1.406,0.845-3.094,1.296-4.61
			l1.629-4.893h7.422l-6.24,13.493l6.354,13.999h-8.039l-1.857-5.17c-0.508-1.404-0.955-2.814-1.35-4.218h-0.113
			c-0.336,1.403-0.844,2.813-1.236,4.218l-1.686,5.17h-7.367l6.128-13.66l-6.069-13.832H236.144z"/>
	</g>
</g>
</svg>
