<?xml version="1.0" encoding="utf-8"?>
<!-- Generator: Adobe Illustrator 16.0.0, SVG Export Plug-In . SVG Version: 6.00 Build 0)  -->
<!DOCTYPE svg PUBLIC "-//W3C//DTD SVG 1.1//EN" "http://www.w3.org/Graphics/SVG/1.1/DTD/svg11.dtd">
<svg version="1.1" id="Шар_1" xmlns="http://www.w3.org/2000/svg" xmlns:xlink="http://www.w3.org/1999/xlink" x="0px" y="0px"
	 width="105.953px" height="105.765px" viewBox="0 0 105.953 105.765" enable-background="new 0 0 105.953 105.765"
	 xml:space="preserve">
<g>
	<g>
		<path fill="#575756" d="M74.261,63.133c0,6.068-4.932,10.991-11.015,10.991c-6.075,0.009-11.007-4.919-11.007-10.986
			c0-6.072,4.932-10.996,11.011-10.996S74.261,57.066,74.261,63.133z"/>
		<path fill="#575756" d="M105.953,63.142c0,6.063-4.928,10.987-11.016,10.987c-6.078-0.005-11.011-4.928-11.011-10.996
			c0-6.067,4.933-10.991,11.011-10.991C101.021,52.142,105.953,57.066,105.953,63.142z"/>
		<path fill="#575756" d="M74.261,94.769c0,6.072-4.932,10.996-11.011,10.996s-11.011-4.924-11.011-10.996
			s4.928-10.996,11.011-10.996C69.329,83.778,74.261,88.706,74.261,94.769z"/>
		<path fill="#575756" d="M105.949,94.769c0,6.072-4.928,10.996-11.012,10.996c-6.074,0-11.011-4.92-11.011-10.996
			c0-6.063,4.933-10.987,11.011-10.987C101.025,83.782,105.957,88.706,105.949,94.769z"/>
	</g>
	<path fill="#575756" d="M105.953,22.034V0C47.437,0,0,47.348,0,105.765h22.074C22.074,59.596,59.702,22.034,105.953,22.034z"/>
</g>
</svg>
